# xmcd
#
# Track frame offsets: 
#        150
#        28751
#        58947
#        76144
#        90861
#        107893
#        127647
#        160002
#        178338
#        193598
#        222278
#        232859
#        253597
#        285144
#
# Disc length: 4146 seconds
#
# Revision: 3
# Processed by: cddbd v1.5.2PL0 Copyright (c) Steve Scherf et al.
# Submitted via: ExactAudioCopyFreeDBPlugin 1.0
#
DISCID=ac10300e
DTITLE=Jani Kovačič - Povabilo na bluz
DYEAR=1998
DGENRE=Blues
TTITLE0=Povabilo na bluz
TTITLE1=Romeo krvavi
TTITLE2=Tam dol v luknji
TTITLE3=Ploskaj!
TTITLE4=Komi čakam, de pridem s šihta
TTITLE5=Mrzel mrzel grob
TTITLE6=Devetindvajset dolarjev
TTITLE7=Prah v zemlji
TTITLE8=Fajhtni cucki
TTITLE9=Rdeči šolni
TTITLE10=Tango do skrajnosti
TTITLE11=Lokalni vlak
TTITLE12=Traubertovega Toma bluz
TTITLE13=Čas
EXTD=Po motivih Toma Waitsa priredil Jani Kovacic. Lektorirala Barbara
EXTD=Korun.\nIzvajajo: Blaz Grm (klavir, bobni), Nino DeGleria (bas),
EXTD=Zarko Zivkovic (elektricna \nkitara), Jani Kovacic (kitara, voka
EXTD=l).\nGlasbene priredbe: Blaz Grm, Nino DeGleria, Zarko Zivkovic i
EXTD=n Jani Kovacic.\nOvitek oblikoval Ivo Marko.\nSnemano: KUD France
EXTD=Preseren in Studio Alien v zivo v marcu in aprilu 1996. \nKoncer
EXTD=te so snemali: Bosko Bursac-Boban, Aldo Ivancic, Ales Trtnik in N
EXTD=even\nSmolcic.\nMesanje, editiranje in mastering Neven Smolcic - 
EXTD=Studio Alien.\nProducent Neven Smolcic.\nTehnicne usluge Studio A
EXTD=lien.\nTisk ovitka Partner graf d.o.o.\nRazmnozevanje DADC Sony, 
EXTD=Sazburg, Austria AG.\nZa KUD France Preseren Zelko Pelicon in Bra
EXTD=nimir Strukelj.\nZa Zalozbo kaset in plosc RTV Slovenija, direkto
EXTD=r in odgovorni urednik Ivo Umek.
EXTT0=
EXTT1=
EXTT2=
EXTT3=
EXTT4=
EXTT5=
EXTT6=
EXTT7=
EXTT8=
EXTT9=
EXTT10=
EXTT11=
EXTT12=
EXTT13=
PLAYORDER=
